<svg width="50" height="30" viewBox="0 0 50 30" fill="none" xmlns="http://www.w3.org/2000/svg">
<g clip-path="url(#clip0)">
<rect width="50" height="29.98" fill="white"/>
<g clip-path="url(#clip1)">
<path d="M5.90814 0.830078C3.50092 1.05469 1.42084 2.75879 0.947204 4.89746C0.820251 5.45898 0.830017 6.69434 0.966736 7.24121C1.47455 9.28223 3.10052 10.9326 5.07806 11.416C5.99603 11.6406 6.74799 11.6699 9.93646 11.6016C12.0703 11.5576 12.5683 11.582 13.5693 11.7725C15.415 12.1289 16.8554 13.0518 17.8466 14.5166C18.1835 15.0195 18.1884 14.9805 17.7441 15.6543C17.3925 16.1865 16.4745 17.124 15.9814 17.4463C15.2197 17.9492 14.3408 18.3008 13.3495 18.501C12.4169 18.6914 11.8994 18.7158 9.83881 18.6816C8.60345 18.6621 7.6806 18.6719 7.32416 18.7061C4.59467 18.9551 2.51947 20.1514 1.61615 21.9971C1.00092 23.252 0.908142 24.7168 1.36713 26.084C1.64545 26.9092 2.01166 27.5195 2.57318 28.0908C3.13959 28.667 3.74017 29.0137 4.66302 29.2969C5.37103 29.5117 5.88373 29.5898 6.63568 29.5898C9.01361 29.5898 10.9911 28.4961 11.8896 26.6846C12.2802 25.8984 12.373 25.4932 12.373 24.5605C12.3779 23.6719 12.3144 23.3887 11.8896 22.3291C11.5576 21.499 11.4941 21.2354 11.5673 20.9619C11.6796 20.542 11.9775 20.4199 13.6425 20.1123C16.6113 19.5703 18.6572 18.9648 21.2451 17.8564L21.7577 17.6367L31.6845 21.0986C42.2851 24.7998 42.08 24.7314 43.3837 24.8584C45.0683 25.0244 46.787 24.6338 47.9882 23.8184C48.4716 23.4912 49.3163 22.7393 49.2626 22.6855C49.2529 22.6709 44.7167 20.9717 39.1845 18.9014C33.6523 16.8311 29.0673 15.1074 28.9941 15.0732C28.872 15.0195 29.4726 14.7754 38.0273 11.4258C49.7607 6.83105 49.0234 7.12402 49.0234 7.07031C49.0234 6.97754 48.2665 6.28906 47.8808 6.03027C46.9531 5.41504 45.9033 5.08301 44.5849 4.98047C43.4667 4.89746 42.0312 5.06836 40.8935 5.4248C40.6249 5.50781 36.2743 7.13867 31.2255 9.04297C26.1767 10.9521 22.0068 12.5244 21.9628 12.5391C21.914 12.5488 21.6015 12.4268 21.2744 12.2656C20.1611 11.7188 18.9648 11.2793 17.6513 10.9375C16.5673 10.6543 16.162 10.5713 14.4335 10.2783C12.207 9.89746 11.7285 9.76074 11.4794 9.44336C11.2841 9.19434 11.3329 8.94531 11.7187 8.17871C11.9775 7.66602 12.08 7.40234 12.1337 7.11426C12.2216 6.66016 12.2314 5.38086 12.1533 4.95117C11.8066 2.98828 10.0927 1.37207 7.86127 0.90332C7.40716 0.805664 6.51849 0.776367 5.90814 0.830078ZM7.32416 2.64648C9.33588 3.02734 10.7421 5.1709 10.3222 7.2168C10.0585 8.51562 9.26752 9.375 7.95892 9.79004C5.8349 10.459 3.22748 8.9502 2.72943 6.7627C2.57806 6.09375 2.72455 5.12695 3.08588 4.42871C3.78412 3.08105 5.59076 2.31934 7.32416 2.64648ZM7.87591 20.5566C8.08588 20.6055 8.46185 20.752 8.71576 20.874C9.96088 21.4697 10.6054 22.6367 10.5322 24.165C10.4687 25.5762 9.79486 26.7627 8.74017 27.3145C8.32513 27.5342 7.48529 27.7686 6.96771 27.8125C6.19134 27.876 5.11713 27.6318 4.46283 27.2412C4.09662 27.0215 3.61322 26.5723 3.39349 26.2451C2.68549 25.1758 2.75873 23.6279 3.57416 22.4072C4.5556 20.9326 6.34759 20.166 7.87591 20.5566Z" fill="black"/>
</g>
</g>
<defs>
<clipPath id="clip0">
<rect width="50" height="29.98" fill="white"/>
</clipPath>
<clipPath id="clip1">
<rect width="50" height="29.9805" fill="white"/>
</clipPath>
</defs>
</svg>
